<?xml version="1.0"?>
<svg width="1280" height="1280" xmlns="http://www.w3.org/2000/svg" xmlns:svg="http://www.w3.org/2000/svg" preserveAspectRatio="xMidYMid meet">
 <metadata>Created by potrace 1.15, written by Peter Selinger 2001-2017</metadata>
 <g class="layer">
  <title>Layer 1</title>
  <g fill="#000000" id="svg_1" transform="translate(0 1280) scale(0.1 -0.1)">
   <path d="m4615,12476c-167,-39 -293,-112 -436,-255c-116,-115 -199,-232 -279,-391c-477,-954 -316,-2528 353,-3430c91,-123 249,-285 357,-366c354,-267 752,-281 1071,-38c327,250 551,732 636,1369c21,164 25,672 5,840c-82,702 -291,1283 -618,1722c-82,109 -243,273 -344,350c-94,71 -272,163 -365,188c-83,23 -302,29 -380,11z" fill="#bfcbff" id="svg_2" stroke="#89ede6"/>
   <path d="m8546,12274c-311,-61 -636,-299 -905,-661c-346,-465 -580,-1080 -668,-1758c-28,-216 -25,-698 5,-894c70,-447 219,-789 442,-1011c191,-192 431,-281 675,-252c581,72 1154,706 1460,1616c254,755 281,1550 73,2156c-203,591 -615,897 -1082,804z" fill="#bfcbff" id="svg_3" stroke="#89ede6"/>
   <path d="m2095,9010c-409,-65 -717,-395 -856,-919c-79,-301 -90,-716 -28,-1081c143,-850 635,-1631 1217,-1933c298,-154 595,-181 850,-75c376,156 623,560 704,1153c16,119 16,472 -1,610c-130,1102 -809,2069 -1564,2230c-89,19 -247,26 -322,15z" fill="#bfcbff" id="svg_4" stroke="#89ede6"/>
   <path d="m10570,8200c-360,-77 -713,-330 -1006,-722c-318,-426 -532,-982 -594,-1542c-16,-146 -13,-460 5,-601c122,-948 766,-1403 1495,-1059c391,185 745,566 998,1073c480,960 449,2085 -73,2606c-220,220 -523,310 -825,245z" fill="#bfcbff" id="svg_5" stroke="#89ede6"/>
   <path d="m6225,6421c-662,-118 -1497,-813 -2237,-1861c-579,-821 -987,-1705 -1109,-2405c-29,-168 -32,-468 -6,-583c41,-179 110,-297 244,-422c224,-207 493,-329 830,-376c175,-24 529,-15 754,19c301,47 555,108 1124,272c550,158 704,191 856,181c193,-13 338,-60 754,-243c298,-131 464,-193 606,-228c530,-128 976,39 1435,537c137,148 179,220 222,377c24,90 26,110 26,321c0,191 -3,245 -23,355c-118,667 -469,1473 -976,2240c-603,912 -1311,1569 -1902,1764c-215,71 -398,87 -598,52z" fill="#bfcbff" id="svg_6" stroke="#89ede6"/>
  </g>
 </g>
</svg>